# xmcd
#
# Track frame offsets: 
#        150
#        27645
#        53878
#        86253
#        110663
#        131735
#        158725
#        183620
#        199778
#        217315
#        227355
#        239275
#        252048
#        274350
#        288938
#        308233
#        337023
#
# Disc length: 4493 seconds
#
# Revision: 3
# Processed by: cddbd v1.5PL3 Copyright (c) Steve Scherf et al.
# Submitted via: ExactAudioCopy v0.95a4
#
DISCID=00118b11
DTITLE=Ray Charles - Genius and Soul:  The 50th Anniversary Collection (
DTITLE=Disk 5)
DYEAR=1900
DGENRE=blues
TTITLE0=Living For The City
TTITLE1=Till There Was You
TTITLE2=Am I Blue
TTITLE3=How Long Has This Been Going On
TTITLE4=The Jealous Kind
TTITLE5=Is There Anyone Out There?
TTITLE6=Don't You Love Me Anymore?
TTITLE7=One Of These Days
TTITLE8=Seven Spanish Angels
TTITLE9=We Didn't See A Thing
TTITLE10=Two Old Cats Like Us
TTITLE11=Shake Your Tailfeather
TTITLE12=I'll Be Good To You
TTITLE13=That's Where It's At
TTITLE14=A Song For You
TTITLE15=Still Crazy After All These Years
TTITLE16=Unknown
EXTD=
EXTT0=
EXTT1=
EXTT2=
EXTT3=
EXTT4=
EXTT5=
EXTT6=
EXTT7=
EXTT8=with Willie Nelson
EXTT9=with George Jones, featuring Chet Atkins
EXTT10=with Hank Williams Jr.
EXTT11=with The Blues Brothers
EXTT12=Quincy Jones featuring Ray Charles and Chaka Khan
EXTT13=Lou Rawls with Ray Charles
EXTT14=
EXTT15=
EXTT16=
PLAYORDER=
